<svg xmlns="http://www.w3.org/2000/svg" viewBox="0 0 40 40">
  <path d="M24.8,18.8l-8-8c0.4-0.3,0.9-0.5,1.5-0.6c0.6-0.2,1.1-0.3,1.7-0.3c1.6,0,3,0.6,4.1,1.7
	c1.1,1.1,1.7,2.5,1.7,4.1c0,0.6-0.1,1.2-0.3,1.8C25.4,18,25.1,18.5,24.8,18.8z M9.5,29c1.6-1.1,3.3-1.9,5-2.5s3.5-0.9,5.5-0.9
	c0.8,0,1.6,0.1,2.4,0.2c0.7,0.1,1.4,0.3,1.9,0.4l-4.8-4.8c-1.5-0.1-2.7-0.6-3.7-1.6c-0.9-0.9-1.5-2.1-1.6-3.5l-5.1-5.1
	c-0.9,1.2-1.7,2.6-2.2,4s-0.8,3-0.8,4.8c0,1.6,0.3,3.2,0.8,4.7C7.6,26.2,8.4,27.6,9.5,29z M30.8,28.7c0.9-1.1,1.6-2.4,2.1-3.9
	c0.5-1.5,0.8-3.1,0.8-4.8c0-4-1.3-7.3-3.9-9.9S24,6.2,20,6.2c-1.8,0-3.4,0.3-4.8,0.8c-1.4,0.5-2.7,1.3-3.9,2.1L30.8,28.7z M20,37
	c-2.4,0-4.6-0.4-6.6-1.3S9.5,33.5,8,32s-2.7-3.3-3.6-5.4S3,22.4,3,20s0.4-4.6,1.3-6.6S6.5,9.5,8,8s3.3-2.7,5.4-3.6S17.6,3,20,3
	s4.6,0.4,6.6,1.3S30.5,6.5,32,8s2.7,3.3,3.6,5.4S37,17.6,37,20s-0.4,4.6-1.3,6.6S33.5,30.5,32,32s-3.3,2.7-5.4,3.6S22.4,37,20,37z"
  />
</svg>
