<svg viewBox="0 0 1000 1004.1441" xmlns="http://www.w3.org/2000/svg"><path d="m938 21.144h-875c-35 0-63 28-63 62v84c0 34 28 62 63 62h875c34 0 62-28 62-62v-84c0-34-28-62-62-62zm-146 166h-96l96-95zm-155 0h-66l125-125h66zm-191 0 125-125h66l-125 125zm-125 0 125-125h66l-125 125zm-125 0 125-125h66l-125 125zm-125 0 125-125h66l-125 125zm-8-125h74l-95 96v-75c0-11 9-21 21-21zm895 105c0 11-9 20-20 20h-105v-125h105c11 0 20 10 20 21zm-20 104h-875c-35 0-63 28-63 62v84c0 34 28 62 63 62h875c34 0 62-28 62-62v-84c0-34-28-62-62-62zm-396 166h-96l96-95zm-155 0h-66l125-125h66zm-191 0 125-125h66l-125 125zm-125 0 125-125h66l-125 125zm-8-125h74l-95 96v-75c0-11 9-21 21-21zm895 105c0 11-9 20-20 20h-355v-125h355c11 0 20 10 20 21zm-20 354h-875c-35 0-63 28-63 62v84c0 34 28 62 63 62h875c34 0 62-28 62-62v-84c0-34-28-62-62-62zm-646 167h-96l96-96zm-155 0h-66l125-126h66zm-74-126h74l-95 96v-75c0-11 9-21 21-21zm895 105c0 11-9 21-20 21h-605v-126h605c11 0 20 10 20 21zm-20-396h-875c-35 0-63 28-63 62v84c0 34 28 62 63 62h875c34 0 62-28 62-62v-84c0-34-28-62-62-62zm-271 166h-96l96-95zm-155 0h-66l125-125h66zm-191 0 125-125h66l-125 125zm-125 0 125-125h66l-125 125zm-125 0 125-125h66l-125 125zm-8-125h74l-95 96v-75c0-11 9-21 21-21zm895 105c0 11-9 20-20 20h-230v-125h230c11 0 20 10 20 21z"/></svg>